<svg width="102" height="104" fill="none" xmlns="http://www.w3.org/2000/svg"><g clip-path="url(#a)"><path d="M25.8465 75.638h40.1771c.1989-4.5818-.1293-12.1837-2.9463-15.8019l-.1018-.1299-6.1558-3.0908c.1337-.4508.1995-.8638.2259-1.1674.0304-.3644-.0198-.7067-.1499-1.0167-1.0156-2.4302-3.1645-3.7087-4.3466-4.2537.3603-.7257.5925-1.5049.7047-2.3009.6691-.1885 1.2073-.7188 1.3837-1.4262l.7186-2.9191c.1273-.5149.0474-1.049-.2263-1.5031-.1178-.1959-.2701-.3607-.4409-.5016 2.0258-4.6017-1.3671-8.9405-1.552-9.1689-3.6747-3.973-8.3168-3.2301-8.5622-3.1861-6.6991 1.4028-9.2844 6.537-7.8248 12.5584a1.9767 1.9767 0 0 0-.4537 1.8006l.722 2.9223c.1751.7022.7091 1.2306 1.3734 1.4213a7.5195 7.5195 0 0 0 1.7284 3.8392v2.314c-9.6133 4.9231-3.522 1.7823-11.2261 5.6797-.0153.0728-3.6149 3.8985-3.0799 15.238l.0325.6928Zm38.781-1.4546h-6.6123v-2.7777l4.3733-10.0117c2.1909 3.6364 2.2723 10.5796 2.239 12.7894Zm-9.0246-18.859c-.2552 2.9313-1.8627 2.0453-2.855 4.3036-.7805-.8582-1.0152-1.8873-.8055-2.9889.379-2.0228-.8556-2.6236-.5505-4.7489l.0463-.0487v-.0068c.0262-.0293.2697-.3192.3401-.4108 2.6162 1.1404 3.8756 3.2614 3.8246 3.9005Zm-14.0345-2.304c1.2145.8424 2.6805 1.3402 4.2574 1.3402 1.485 0 2.8955-.4321 4.1047-1.2278.1676 1.6709.8207 2.0054.589 3.2349-.0435.2283-.067.4532-.0809.6744l-4.5032 5.0753-5.7566-6.4899 1.3896-.7257v-1.8814Zm-1.8104-6.2113V39.051c.7008-1.2962 1.6562-2.2362 2.8436-2.7997 3.1802 1.7993 6.8407 4.4846 9.2955 7.1872-.0023 3.4416.0097 3.451-.0131 3.7338l-.0016.0179c-.1915 3.1253-2.7613 5.7159-6.0566 5.7159-3.2037 0-5.8635-2.5153-6.0558-5.7468-.0099-.1158-.012-.2319-.012-.3502Zm-.8968 9.5203 7.0742 7.9748 4.7494-5.3528c.1085.3126.2608.6078.4349.893l-5.1843 6.4832-7.7308-9.6686.6566-.3296Zm14.4843-10.6907v-2.2468l.5399-.6191c.0299 1.1376.1527-.2051-.5399 2.8659Zm-8.5027-15.0376c.2873.0178 4.1477-.5872 7.1986 2.7066.1201.1508 2.6037 3.3507 1.6059 6.8512-.3415-1.5577-.9367-3.5538-1.8775-4.5064l-1.0282 1.0242c.9288.9408 1.5389 3.8057 1.7713 5.2909-4.2606-4.4583-9.7567-7.2801-9.8321-7.3278-.2756.1714-2.6014.6136-4.2906 3.8966l-.0806.157v2.4112l-.2129.0023c-1.0733-5.1816.982-9.2977 6.7461-10.5058Zm-6.8987 12.0021.3655 1.4808v1.5565l-.6075-2.4588c-.0891-.3665.1824-.5055.242-.5785Zm-1.065 14.7212 9.0563 11.3264 6.1273-7.6635c.6665.5965.987.6811 2.4002 1.4078l-.4767-1.6168c-.1209-.4106.3579-1.0689.6471-1.3715.6456-.3502 1.1837-.8496 1.5863-1.4663l4.9992 2.5103-4.652 10.6503v3.0823H35.3033v-3.0827l-4.6541-10.6488 6.2299-3.1275Zm-7.3982 4.0728 4.374 10.0089v2.7773h-6.6124c-.0332-2.2091.0489-9.1488 2.2384-12.7862Z" fill="#FF6B09"/></g><path d="M101 15V1H1v102h100V89" stroke="#FF6B09" stroke-width="2"/><defs><clipPath id="a"><path fill="#fff" transform="translate(26 28)" d="M0 0h39.8298v48H0z"/></clipPath></defs></svg>