<svg width="102" height="104" fill="none" xmlns="http://www.w3.org/2000/svg"><g clip-path="url(#a)" fill="#FF6B09"><path d="M66.3201 27.812h-23.127c-1.5055 0-2.7302 1.2247-2.7302 2.7302v9.5733l-17.1813 7.2114a.5587.5587 0 0 0-.3417.4757.5599.5599 0 0 0 .2703.5202l2.1911 1.3114v13.9749c-1.1205.2555-1.9613 1.2583-1.9613 2.4582v1.3471c0 .3089.2507.5595.5596.5595h3.9236a.5596.5596 0 0 0 .5595-.5595v-1.3471c0-1.1983-.841-2.1998-1.9624-2.4569V50.304l1.7325 1.0369c-.0532.3995-.0067-.6963-.0248 6.5062 0 2.3676 6.0645 3.6359 12.2349 3.7086v10.906c0 .5634.1725 1.0873.4674 1.5221.4907.7259 1.3212 1.2041 2.2614 1.2041h23.127c1.504 0 2.7276-1.2239 2.7276-2.7276 0 .0747-.003-2.3102 0-41.9177 0-1.4851-1.2279-2.7306-2.7262-2.7306ZM27.3636 66.0673v.7875h-2.8045v-.7875c0-.7752.6276-1.4061 1.3988-1.4061.7752 0 1.4057.6309 1.4057 1.4061Zm38.9565 7.9987h-23.127c-.5549 0-1.0451-.2809-1.335-.7073a1.5988 1.5988 0 0 1-.2751-.8984v-3.7805h26.3414v3.7819c0 .8764-.7303 1.6043-1.6043 1.6043Zm1.6043-6.5052H41.5819V61.559c3.0128-.0345 12.2422-.698 12.2422-3.7119-.0033-4.5246.008-6.3594-.0142-6.5147l5.0244-3.0096a.56.56 0 0 0 .2703-.5202.5589.5589 0 0 0-.3417-.4757l-17.181-7.2116v-4.6732h26.3425v32.1187Zm-26.902-13.4286c-3.1036 0-9.0793.4008-11.6753 2.096.0165-5.185-.1799-4.8473.4586-5.287 1.6127-1.1875 6.2251-2.0166 11.2167-2.0166 2.1772 0 11.6826.5985 11.6826 2.6111v4.6933c-2.6203-1.711-8.5657-2.0968-11.6826-2.0968Zm.5606-23.5896c0-.887.7217-1.6086 1.6087-1.6086h23.127c.8878 0 1.6057.7317 1.6057 1.6082v3.7808H41.583v-3.7804Zm-.5606 10.5515 16.2885 6.8367-4.036 2.4153c-2.1457-2.1279-9.2437-2.5406-12.2525-2.5406-3.0127 0-10.1112.4139-12.2523 2.5412l-4.0373-2.4159 16.2896-6.8367Zm-11.6753 16.753c0-.9056 4.0099-2.5958 11.6753-2.5958 7.6702 0 11.6826 1.6902 11.6826 2.5958 0 .9063-4.0124 2.5965-11.6826 2.5965-7.6654 0-11.6753-1.6902-11.6753-2.5965Z"/><path d="M54.7548 69.5234c-1.0203 0-1.8505.8299-1.8505 1.8505 0 1.0207.8302 1.8513 1.8505 1.8513 1.0207 0 1.8509-.8306 1.8509-1.8513 0-1.0206-.8302-1.8505-1.8509-1.8505Zm0 2.5827c-.4032 0-.7315-.3285-.7315-.7322 0-.4036.3283-.7314.7315-.7314.4036 0 .7318.3278.7318.7314 0 .4037-.3282.7322-.7318.7322ZM56.8896 31.0691h-4.2685v1.119h4.2685v-1.119Z"/></g><path d="M101 15V1H1v102h100V89" stroke="#FF6B09" stroke-width="2"/><defs><clipPath id="a"><path fill="#fff" transform="translate(22 28)" d="M0 0h48v47H0z"/></clipPath></defs></svg>