<svg width="102" height="104" fill="none" xmlns="http://www.w3.org/2000/svg"><g clip-path="url(#a)" fill="#FF6B09"><path d="M25.8127 48.6131c0 .5353-.8127.5353-.8127 0C25 37.2311 34.2311 28 45.6131 28 57 28 66.2263 37.2311 66.2263 48.6131c0 .5353-.8078.5353-.8078 0 0-7.6934-12.6423-7.6983-12.6423 0 0 .5353-.8322.5353-.8322 0 0-7.6739-12.6618-7.6739-12.6618 0 0 .5353-.8321.5353-.8321 0 0-7.6593-12.6374-7.7129-12.6374 0Zm12.7104-2.9878c.219-4.4282.9149-8.399 1.927-11.4307.8078-2.4087 1.8297-4.2384 2.9879-5.2652-8.691.9489-15.7275 7.5378-17.2993 16.0828 2.9927-4.3163 9.9027-3.9708 12.3844.6131Zm13.3577-.1995c-.2239-4.2579-.9003-8.0681-1.8735-10.9732-2.511-7.5183-6.2774-7.5183-8.7883 0-.9733 2.9051-1.6448 6.7153-1.8735 10.9732 2.7007-4.5888 9.8345-4.5888 12.5353 0Zm13.2068-.4136c-1.5669-8.545-8.6034-15.1339-17.2993-16.0828 1.163 1.0268 2.1801 2.8565 2.9879 5.2652 1.0121 3.0317 1.708 7.0025 1.927 11.4307 2.4963-4.6083 9.4257-4.8808 12.3844-.6131ZM42.9077 58.0449v-4.1858c-.7543.5013-1.348 1.2752-1.348 2.2194 0 .9199.6034 1.5283 1.348 1.9664Zm.8126 1.2995c-1.4452-.6619-2.9683-1.4358-2.9683-3.2659 0-1.8885 1.4355-2.8327 2.9683-3.5385v6.8044ZM48.3185 64.36v4.2336c.764-.5061 1.3626-1.2846 1.3626-2.2287 0-.9294-.6132-1.5572-1.3626-2.0049Zm-.8078-1.3041c1.4502.6715 2.983 1.4696 2.983 3.309 0 1.893-1.4452 2.837-2.983 3.5377v-6.8467Z"/><path d="M48.3188 49.095c3.3284.7688 6.7494 3.2604 6.7494 6.9831 0 3.1874-5.3869 3.0706-5.3869 0 0-.9489-.5985-1.7275-1.3625-2.2288v5.9564c3.0803 1.0073 6.7591 2.8127 6.7591 6.5598 0 3.7276-3.4209 6.2142-6.7591 6.9782-.0146 3.5476-5.4015 3.5427-5.4112-.0048-1.8978-.438-3.5475-1.3237-4.7397-2.4964-1.2506-1.2361-1.9902-2.7884-1.9902-4.477 0-3.1388 5.3819-3.1388 5.3819 0 0 .9392.5937 1.7129 1.348 2.2141v-5.9514c-3.056-.9879-6.7543-2.8468-6.7543-6.5598 0-3.7276 3.4209-6.2143 6.7543-6.9783.0146-3.5475 5.4014-3.5427 5.4112.0049Zm-4.5986.0097v.6472c-3.1679.6278-6.7591 2.657-6.7591 6.3165 0 3.5183 3.9416 5.095 6.7591 5.9661v7.8639c-1.5231-.6959-2.9683-1.6351-2.9683-3.5329 0-2.0731-3.7665-2.0731-3.7665 0 0 1.4647.6521 2.8176 1.7519 3.8979 1.3966 1.382 3.09 2.039 4.9829 2.4137v.652c0 2.4965 3.7908 2.4965 3.7908 0v-.6472c3.1776-.6326 6.7542-2.6618 6.7542-6.3164 0-3.5524-3.9318-5.0804-6.7542-5.971v-7.8591c1.528.6959 2.983 1.6351 2.983 3.5427 0 2.0195 3.7615 2.1023 3.7615 0 0-3.6546-3.5718-5.6887-6.7445-6.3213v-.6521c0-2.4964-3.7908-2.4964-3.7908 0Z"/></g><path d="M101 15V1H1v102h100V89" stroke="#FF6B09" stroke-width="2"/><defs><clipPath id="a"><path fill="#fff" transform="translate(25 28)" d="M0 0h42v48H0z"/></clipPath></defs></svg>