<svg width="61" height="62" fill="none" xmlns="http://www.w3.org/2000/svg"><g clip-path="url(#a)" fill="#FF6B09"><path d="M48.8057 10.0378H28.5706c-1.3173 0-2.3888 1.0706-2.3888 2.3866v8.3682l-15.033 6.3036a.4882.4882 0 0 0-.2989.4158.4892.4892 0 0 0 .2365.4547l1.9171 1.1464v12.2157c-.9804.2233-1.716 1.0999-1.716 2.1488v1.1775c0 .27.2193.4891.4895.4891h3.433a.4895.4895 0 0 0 .4896-.4891v-1.1775c0-1.0475-.7358-1.9229-1.717-2.1476V29.6985l1.5159.9064c-.0466.3492-.0059-.6086-.0217 5.6872 0 2.0696 5.3061 3.1782 10.705 3.2418v9.5332c0 .4924.1509.9504.4089 1.3305.4293.6344 1.156 1.0525 1.9786 1.0525h20.2351c1.3161 0 2.3867-1.0699 2.3867-2.3843-.0001.0653-.0027-2.0194 0-36.6411 0-1.2982-1.0745-2.3869-2.3854-2.3869ZM14.7205 43.4776v.6884h-2.4539v-.6884c0-.6776.5492-1.2291 1.2239-1.2291.6782 0 1.23.5515 1.23 1.2291Zm34.0852 6.9918H28.5706a1.4113 1.4113 0 0 1-1.1681-.6182 1.397 1.397 0 0 1-.2407-.7854v-3.3046h23.0476v3.3059c0 .766-.639 1.4023-1.4037 1.4023Zm1.4037-5.6863H27.1609v-5.2463c2.636-.0302 10.7113-.6101 10.7113-3.2447-.0029-3.955.007-5.5588-.0124-5.6946l4.3962-2.6308a.4891.4891 0 0 0-.0625-.8705l-15.0326-6.3038v-4.085h23.0485v28.0757ZM26.6713 33.0449c-2.7155 0-7.944.3504-10.2154 1.8322.0144-4.5324-.1574-4.2372.4013-4.6216 1.411-1.038 5.4466-1.7627 9.8141-1.7627 1.9049 0 10.2218.5232 10.2218 2.2824v4.1025c-2.2927-1.4956-7.4946-1.8328-10.2218-1.8328Zm.4905-20.6202c0-.7753.6314-1.4061 1.4075-1.4061h20.2351c.7768 0 1.405.6396 1.405 1.4058v3.3049H27.1618v-3.3046Zm-.4905 9.2233 14.2517 5.9761-3.5313 2.1112c-1.8774-1.86-8.0878-2.2207-10.7204-2.2207-2.636 0-8.8468.3618-10.7203 2.2213l-3.5324-2.1118 14.2527-5.9761ZM16.4559 36.2921c0-.7916 3.5085-2.269 10.2154-2.269 6.7111 0 10.2218 1.4774 10.2218 2.269 0 .7922-3.5107 2.2697-10.2218 2.2697-6.7069 0-10.2154-1.4775-10.2154-2.2697Z"/><path d="M38.6865 46.4988c-.8927 0-1.6191.7253-1.6191 1.6175 0 .8923.7264 1.6183 1.6191 1.6183.8931 0 1.6194-.726 1.6194-1.6183 0-.8922-.7263-1.6175-1.6194-1.6175Zm0 2.2576a.6409.6409 0 0 1-.64-.6401c0-.3528.2872-.6393.64-.6393.3531 0 .6403.2865.6403.6393a.641.641 0 0 1-.6403.6401ZM40.5541 12.8848h-3.7348v.9781h3.7348v-.9781Z"/></g><path d="M60 9.4357V1.1836H1V61.306h59v-8.2521" stroke="#FF6B09" stroke-width="2"/><defs><clipPath id="a"><path fill="#fff" transform="translate(10.0273 10.2021)" d="M0 0h41.998v41.0837H0z"/></clipPath></defs></svg>