<svg width="61" height="62" fill="none" xmlns="http://www.w3.org/2000/svg"><g clip-path="url(#a)" fill="#FF6B09"><path d="M13.6772 28.6004c0 .4469-.6772.4469-.6772 0 0-9.5044 7.6926-17.2127 17.1776-17.2127 9.4891 0 17.1776 7.7083 17.1776 17.2127 0 .4469-.6731.4469-.6731 0 0-6.4243-10.5353-6.4284-10.5353 0 0 .4469-.6934.4469-.6934 0 0-6.4081-10.5515-6.4081-10.5515 0 0 .4469-.6935.4469-.6935 0 0-6.3959-10.5312-6.4406-10.5312 0Zm10.5921-2.495c.1824-3.6977.7623-7.0134 1.6058-9.545.6732-2.0114 1.5247-3.5392 2.4899-4.3966-7.2425.7924-13.1063 6.2943-14.4161 13.4296 2.4939-3.6042 8.2522-3.3157 10.3204.512Zm11.1313-.1666c-.1865-3.5555-.7502-6.7371-1.5612-9.163-2.0924-6.278-5.2311-6.278-7.3236 0-.811 2.4259-1.3706 5.6075-1.5612 9.163 2.2506-3.8318 8.1954-3.8318 10.446 0Zm11.0057-.3454c-1.3057-7.1353-7.1695-12.6372-14.416-13.4296.9691.8574 1.8167 2.3852 2.4898 4.3966.8435 2.5316 1.4234 5.8473 1.6059 9.545 2.0803-3.848 7.8548-4.0756 10.3203-.512ZM27.9234 36.4764v-3.4953c-.6286.4186-1.1233 1.0648-1.1233 1.8533 0 .7681.5028 1.2762 1.1233 1.642Zm.6772 1.0851c-1.2044-.5527-2.4736-1.1989-2.4736-2.7271 0-1.577 1.1962-2.3654 2.4736-2.9548v5.6819ZM32.4319 41.7496v3.5352c.6367-.4226 1.1355-1.0727 1.1355-1.861 0-.7761-.511-1.3003-1.1355-1.6742Zm-.6731-1.089c1.2084.5608 2.4858 1.2272 2.4858 2.7632 0 1.5806-1.2044 2.369-2.4858 2.9541v-5.7173Z"/><path d="M32.4318 29.0026c2.7737.642 5.6245 2.7225 5.6245 5.8311 0 2.6616-4.489 2.5641-4.489 0 0-.7924-.4988-1.4425-1.1355-1.8611v4.9738c2.5669.8411 5.6326 2.3487 5.6326 5.4776 0 3.1127-2.8508 5.1892-5.6326 5.8271-.0121 2.9623-4.5012 2.9583-4.5093-.004-1.5815-.3658-2.9562-1.1053-3.9497-2.0846-1.0422-1.0322-1.6586-2.3284-1.6586-3.7385 0-2.6209 4.485-2.6209 4.485 0 0 .7843.4947 1.4304 1.1233 1.8489v-4.9697c-2.5466-.8249-5.6286-2.3771-5.6286-5.4776 0-3.1127 2.8508-5.1891 5.6286-5.8271.0122-2.9623 4.5012-2.9582 4.5093.0041Zm-3.8321.0081v.5405c-2.6399.5241-5.6326 2.2186-5.6326 5.2744 0 2.9379 3.2847 4.2545 5.6326 4.9819v6.5667c-1.2693-.5811-2.4736-1.3654-2.4736-2.9502 0-1.731-3.1387-1.731-3.1387 0 0 1.2232.5434 2.3528 1.4598 3.2549 1.1639 1.1541 2.575 1.7026 4.1525 2.0155v.5445c0 2.0846 3.159 2.0846 3.159 0v-.5404c2.648-.5283 5.6285-2.2228 5.6285-5.2745 0-2.9663-3.2766-4.2423-5.6285-4.9859v-6.5626c1.2733.5811 2.4858 1.3653 2.4858 2.9582 0 1.6864 3.1346 1.7555 3.1346 0 0-3.0517-2.9765-4.7502-5.6204-5.2785v-.5445c0-2.0846-3.159-2.0846-3.159 0Z"/></g><path d="M60 9.2353V1H1v60h59v-8.2353" stroke="#FF6B09" stroke-width="2"/><defs><clipPath id="a"><path fill="#fff" transform="translate(13 11.3877)" d="M0 0h35v40.0816H0z"/></clipPath></defs></svg>