<svg width="15" height="20" fill="none" xmlns="http://www.w3.org/2000/svg"><path d="M13.6931 10.3706c-.1772-.397-.4216-.7879-.7791-1.2394-.9014-1.1333-1.1764-3.6606-1.1795-3.6848-.0122-.1212-.0978-.2212-.2108-.2576a.31.31 0 0 0-.3239.0879c-1.0756 1.203-.6233 3.0606-.3789 3.803.0672.203.1406.4424.1925.6849.3972 1.9606-.3697 2.8484-.55 3.0272-.1742.0485-.2934.0243-.4034-.0939-.3788-.4152-.5041-1.7758-.3269-3.5485.0367-.3606.0275-.6848-.0244-.9879C9.3349 5.9826 7.9645 4.585 7.6156 4.095 6.6562 2.6767 6.5584.316 6.5553.2949a.2966.2966 0 0 0-.168-.2606.3051.3051 0 0 0-.3086.0212C4.4775 1.1433 4.615 3.7645 4.838 5.2282c.052.3394.1528.6848.327 1.1212.6202 1.5606-.1223 3.5758-.1284 3.594-.006.0181-.0122.0333-.0153.0515-.0947.4969-.2536.7939-.4308.7939a.2078.2078 0 0 1-.058-.0091c-.217-.0454-.33-.2757-.3331-.4757-.0122-2.5849-2.6064-3.4546-2.6339-3.4637-.1161-.0363-.2444-.003-.3239.091a.2981.2981 0 0 0-.0428.3333c.0306.0636.1284.3424.0611 1.3272-.058.8849-.22 1.7606-.4797 2.6C.1631 13.204.261 15.11.267 15.2009c.4746 5.1608 7.8967 6.0651 12.3017 3.1576.4827-.3182.8769-.6818 1.1672-1.0818 1.6256-2.2424.6692-5.2879-.0428-6.9061ZM2.4029 15.3009a.3027.3027 0 0 1-.2873.3182h-.0183c-.162 0-.2964-.1242-.3056-.2848-.0274-.4425-.0213-.9061.0123-1.4091.0122-.1667.1589-.2909.327-.2819.168.0121.2963.1576.284.3243-.0336.4788-.0396.9151-.0121 1.3333Zm.1497-2.6848c-.0184.1545-.1498.2666-.3026.2666-.0122 0-.0244 0-.0397-.003a.3057.3057 0 0 1-.2658-.3363l.1467-1.1697c.0213-.1637.171-.2819.3422-.2637.168.0212.2872.1727.2658.3394l-.1466 1.1667ZM11.626 4.1459c-.1666-.0256-.2809-.18-.2552-.3453.0191-.1232.1295-.7535.4291-1.0704a.307.307 0 0 1 .4319-.0138.3013.3013 0 0 1 .0139.4284c-.1268.1342-.2349.5183-.271.7481-.0257.1635-.1795.2783-.3487.253ZM.4865 5.6553c-.0584-.2254-.2038-.597-.3433-.7184a.3012.3012 0 0 1-.0283-.4276.3066.3066 0 0 1 .4312-.0281c.3292.2863.5012.9029.5324 1.0234.0418.162-.0566.3269-.2199.3686a.3063.3063 0 0 1-.372-.218Z" fill="#FF6B09"/></svg>