<svg width="61" height="62" fill="none" xmlns="http://www.w3.org/2000/svg"><g clip-path="url(#a)"><path d="M13.8721 50.7998H47.353c.1658-3.8259-.1077-10.1738-2.4552-13.1951l-.0849-.1085-5.1298-2.5809c.1114-.3764.1662-.7213.1882-.9748.0254-.3042-.0165-.5901-.1249-.849-.8463-2.0292-2.6371-3.0968-3.6221-3.5519.3002-.6061.4937-1.2567.5872-1.9214a1.6475 1.6475 0 0 0 1.1531-1.1909l.5988-2.4375a1.652 1.652 0 0 0-.1886-1.2552c-.0981-.1635-.225-.3012-.3674-.4189 1.6882-3.8425-1.1393-7.4656-1.2933-7.6563-3.0622-3.3176-6.9307-2.6973-7.1352-2.6605-5.5826 1.1714-7.737 5.4586-6.5207 10.4867a1.653 1.653 0 0 0-.378 1.5036l.6017 2.4401a1.6464 1.6464 0 0 0 1.1445 1.1869 6.2837 6.2837 0 0 0 1.4403 3.2058v1.9324c-8.0112 4.1109-2.9351 1.4882-9.3551 4.7427-.0127.0607-3.0125 3.2553-2.5666 12.7242l.0271.5785Zm32.3175-1.2146h-5.5103v-2.3194l3.6445-8.3602c1.8257 3.0365 1.8935 8.8343 1.8658 10.6796Zm-7.5205-15.7479c-.2127 2.4477-1.5522 1.7079-2.3792 3.5937-.6504-.7167-.846-1.5761-.6712-2.4959.3158-1.6891-.713-2.1907-.4588-3.9655l.0386-.0407v-.0056c.0218-.0245.2247-.2666.2834-.3431 2.1801.9523 3.2297 2.7234 3.1872 3.2571Zm-11.6954-1.9239c1.012.7034 2.2337 1.1191 3.5478 1.1191 1.2375 0 2.4129-.3608 3.4206-1.0252.1397 1.3952.6839 1.6745.4908 2.7012-.0362.1906-.0558.3784-.0674.5631l-3.7527 4.2381-4.7971-5.4193 1.158-.606v-1.571Zm-1.5087-5.1866v-6.4784c.584-1.0823 1.3802-1.8672 2.3697-2.3378 2.6501 1.5025 5.7005 3.7448 7.7462 6.0015-.0019 2.874.0081 2.8818-.0109 3.1179l-.0013.015c-.1597 2.6097-2.3011 4.7729-5.0472 4.7729-2.6697 0-4.8862-2.1003-5.0465-4.7988a3.4093 3.4093 0 0 1-.01-.2923Zm-.7473 7.9497 5.8951 6.6592 3.9578-4.4697c.0905.261.2174.5075.3625.7457l-4.3203 5.4136-6.4423-8.0736.5472-.2752Zm12.0702-8.9271v-1.8762l.45-.5169c.0248.9499.1272-.1713-.45 2.3931Zm-7.0856-12.5569c.2394.0149 3.4564-.4904 5.9989 2.2601.1001.1259 2.1697 2.7979 1.3382 5.721-.2845-1.3007-.7806-2.9675-1.5645-3.763l-.8569.8552c.774.7856 1.2824 3.1779 1.4761 4.4181-3.5505-3.7228-8.1306-6.0791-8.1934-6.119-.2297.1432-2.1679.5124-3.5755 3.2539l-.0672.131v2.0135a81.7008 81.7008 0 0 0-.1774.0019c-.8944-4.3268.8183-7.7639 5.6217-8.7727Zm-5.7489 10.0221.3046 1.2366v1.2997l-.5062-2.0532c-.0743-.306.1519-.4221.2016-.4831Zm-.8874 12.2928 7.5468 9.4579 5.1061-6.3993c.5555.4981.8225.5688 2.0002 1.1756l-.3972-1.3502c-.1008-.3427.2982-.8925.5392-1.1452.538-.2924.9864-.7094 1.3219-1.2243l4.166 2.0962-3.8767 8.8932v2.5739H21.7527V47.011l-3.8784-8.8921 5.1917-2.6115Zm-6.1653 3.4009 3.6451 8.3578v2.3191h-5.5103c-.0277-1.8447.0406-7.6395 1.8652-10.6769Z" fill="#FF6B09"/></g><path d="M60 9.2353V1H1v60h59v-8.2353" stroke="#FF6B09" stroke-width="2"/><defs><clipPath id="a"><path fill="#fff" transform="translate(14 11.0205)" d="M0 0h33.1915v40.0816H0z"/></clipPath></defs></svg>